<svg width="16" height="33" viewBox="0 0 16 33" fill="none" xmlns="http://www.w3.org/2000/svg">
<path d="M7 31.2852C7 31.8374 7.44772 32.2852 8 32.2852C8.55228 32.2852 9 31.8374 9 31.2852L7 31.2852ZM8.70711 0.578048C8.31658 0.187523 7.68342 0.187523 7.29289 0.578048L0.928931 6.94201C0.538407 7.33253 0.538407 7.9657 0.928931 8.35622C1.31946 8.74675 1.95262 8.74675 2.34314 8.35622L8 2.69937L13.6569 8.35622C14.0474 8.74675 14.6805 8.74675 15.0711 8.35622C15.4616 7.9657 15.4616 7.33253 15.0711 6.94201L8.70711 0.578048ZM9 31.2852L9 1.28515L7 1.28515L7 31.2852L9 31.2852Z" fill="white"/>
</svg>
