<svg width="50" height="51" viewBox="0 0 50 51" fill="none" xmlns="http://www.w3.org/2000/svg">
<path d="M0.5 25.5C0.5 11.969 11.469 1 25 1C38.531 1 49.5 11.969 49.5 25.5C49.5 39.031 38.531 50 25 50C11.469 50 0.5 39.031 0.5 25.5Z" stroke="url(#paint0_linear_23_49438)"/>
<path d="M34.6431 27.5758V34.3786C34.6431 34.5457 34.4999 34.6889 34.3328 34.6889H30.824C30.6569 34.6889 30.5137 34.5457 30.5137 34.3786V28.0532C30.5137 26.3823 29.917 25.2366 28.4132 25.2366C27.2674 25.2366 26.5991 26.0004 26.2888 26.7404C26.1694 27.0029 26.1456 27.3849 26.1456 27.7429V34.3786C26.1456 34.5457 26.0024 34.6889 25.8353 34.6889H22.3503C22.1832 34.6889 22.04 34.5457 22.04 34.3786C22.04 32.6839 22.0878 24.4967 22.04 22.5871C22.04 22.42 22.1832 22.2768 22.3503 22.2768H25.8591C26.0262 22.2768 26.1694 22.42 26.1694 22.5871V24.0431C26.1694 24.067 26.1456 24.067 26.1456 24.0909H26.1694V24.0431C26.7184 23.2077 27.6971 21.9904 29.8931 21.9904C32.6142 21.9904 34.6431 23.7806 34.6431 27.5758ZM15.9294 34.7128H19.4383C19.6053 34.7128 19.7486 34.5696 19.7486 34.4025V22.5871C19.7486 22.42 19.6053 22.2768 19.4383 22.2768H15.9294C15.7624 22.2768 15.6191 22.42 15.6191 22.5871V34.4025C15.643 34.5696 15.7624 34.7128 15.9294 34.7128Z" fill="url(#paint1_linear_23_49438)"/>
<path d="M17.5773 20.727C18.8033 20.727 19.7971 19.7331 19.7971 18.5071C19.7971 17.2811 18.8033 16.2872 17.5773 16.2872C16.3513 16.2872 15.3574 17.2811 15.3574 18.5071C15.3574 19.7331 16.3513 20.727 17.5773 20.727Z" fill="url(#paint2_linear_23_49438)"/>
<defs>
<linearGradient id="paint0_linear_23_49438" x1="50.0384" y1="16.2997" x2="4.54765" y2="40.1906" gradientUnits="userSpaceOnUse">
<stop offset="0.15" stop-color="#BE811A"/>
<stop offset="0.45" stop-color="#F4D48D"/>
<stop offset="0.55" stop-color="#F4D48D"/>
<stop offset="0.85" stop-color="#F3B62E"/>
</linearGradient>
<linearGradient id="paint1_linear_23_49438" x1="34.6579" y1="22.1096" x2="17.4666" y2="31.5596" gradientUnits="userSpaceOnUse">
<stop offset="0.15" stop-color="#BE811A"/>
<stop offset="0.45" stop-color="#F4D48D"/>
<stop offset="0.55" stop-color="#F4D48D"/>
<stop offset="0.85" stop-color="#F3B62E"/>
</linearGradient>
<linearGradient id="paint2_linear_23_49438" x1="34.6579" y1="22.1096" x2="17.4666" y2="31.5596" gradientUnits="userSpaceOnUse">
<stop offset="0.15" stop-color="#BE811A"/>
<stop offset="0.45" stop-color="#F4D48D"/>
<stop offset="0.55" stop-color="#F4D48D"/>
<stop offset="0.85" stop-color="#F3B62E"/>
</linearGradient>
</defs>
</svg>
