<svg width="50" height="50" viewBox="0 0 50 50" fill="none" xmlns="http://www.w3.org/2000/svg">
<path d="M25 49.5C11.469 49.5 0.5 38.531 0.5 25C0.5 11.469 11.469 0.5 25 0.5C38.531 0.5 49.5 11.469 49.5 25C49.5 38.531 38.531 49.5 25 49.5Z" stroke="url(#paint0_linear_4110_2897)"/>
<path d="M30.5452 18.2083C30.2988 18.2083 30.0578 18.2814 29.8529 18.4183C29.648 18.5553 29.4883 18.7499 29.3939 18.9776C29.2996 19.2053 29.2749 19.4558 29.323 19.6976C29.3711 19.9393 29.4898 20.1614 29.6641 20.3356C29.8383 20.5099 30.0604 20.6286 30.3021 20.6767C30.5439 20.7248 30.7944 20.7001 31.0221 20.6058C31.2498 20.5114 31.4444 20.3517 31.5814 20.1468C31.7183 19.9419 31.7914 19.7009 31.7914 19.4545C31.7914 19.124 31.6601 18.807 31.4264 18.5733C31.1927 18.3396 30.8757 18.2083 30.5452 18.2083V18.2083ZM35.3222 20.7214C35.302 19.8598 35.1406 19.0073 34.8445 18.1979C34.5804 17.5054 34.1694 16.8783 33.6398 16.3598C33.1256 15.8276 32.4971 15.4192 31.8018 15.1656C30.9945 14.8605 30.1411 14.6954 29.2783 14.6775C28.1775 14.6152 27.8245 14.6152 24.9998 14.6152C22.1752 14.6152 21.8222 14.6152 20.7214 14.6775C19.8586 14.6954 19.0052 14.8605 18.1979 15.1656C17.5039 15.4218 16.8759 15.8298 16.3598 16.3598C15.8276 16.8741 15.4192 17.5026 15.1656 18.1979C14.8605 19.0052 14.6954 19.8586 14.6775 20.7214C14.6152 21.8222 14.6152 22.1752 14.6152 24.9998C14.6152 27.8245 14.6152 28.1775 14.6775 29.2783C14.6954 30.1411 14.8605 30.9945 15.1656 31.8018C15.4192 32.4971 15.8276 33.1256 16.3598 33.6398C16.8759 34.1699 17.5039 34.5779 18.1979 34.8341C19.0052 35.1392 19.8586 35.3043 20.7214 35.3222C21.8222 35.3845 22.1752 35.3845 24.9998 35.3845C27.8245 35.3845 28.1775 35.3845 29.2783 35.3222C30.1411 35.3043 30.9945 35.1392 31.8018 34.8341C32.4971 34.5805 33.1256 34.1721 33.6398 33.6398C34.1718 33.1233 34.5831 32.4957 34.8445 31.8018C35.1406 30.9924 35.302 30.1399 35.3222 29.2783C35.3222 28.1775 35.3845 27.8245 35.3845 24.9998C35.3845 22.1752 35.3845 21.8222 35.3222 20.7214V20.7214ZM33.4529 29.1537C33.4454 29.8129 33.326 30.466 33.0998 31.0852C32.934 31.5372 32.6677 31.9455 32.321 32.2795C31.9842 32.6227 31.5767 32.8885 31.1268 33.0583C30.5075 33.2844 29.8544 33.4038 29.1952 33.4114C28.1568 33.4633 27.7725 33.4737 25.0414 33.4737C22.3102 33.4737 21.926 33.4737 20.8875 33.4114C20.2031 33.4242 19.5215 33.3188 18.8729 33.0998C18.4428 32.9213 18.0539 32.6562 17.7306 32.321C17.3859 31.9874 17.123 31.5787 16.9622 31.1268C16.7086 30.4987 16.568 29.8307 16.5468 29.1537C16.5468 28.1152 16.4845 27.731 16.4845 24.9998C16.4845 22.2687 16.4845 21.8845 16.5468 20.846C16.5514 20.1721 16.6745 19.5043 16.9102 18.8729C17.0931 18.4346 17.3737 18.0439 17.7306 17.7306C18.0461 17.3736 18.436 17.09 18.8729 16.8998C19.5059 16.6714 20.1731 16.552 20.846 16.5468C21.8845 16.5468 22.2687 16.4845 24.9998 16.4845C27.731 16.4845 28.1152 16.4845 29.1537 16.5468C29.8129 16.5543 30.466 16.6737 31.0852 16.8998C31.5571 17.075 31.9807 17.3597 32.321 17.7306C32.6613 18.0496 32.9272 18.4396 33.0998 18.8729C33.3306 19.5053 33.4501 20.1729 33.4529 20.846C33.5048 21.8845 33.5152 22.2687 33.5152 24.9998C33.5152 27.731 33.5048 28.1152 33.4529 29.1537ZM24.9998 19.6725C23.9467 19.6746 22.9177 19.9888 22.043 20.5754C21.1683 21.162 20.4871 21.9947 20.0855 22.9684C19.6838 23.942 19.5798 25.0128 19.7866 26.0455C19.9933 27.0782 20.5015 28.0265 21.2469 28.7705C21.9924 29.5145 22.9416 30.0208 23.9747 30.2255C25.0079 30.4303 26.0785 30.3242 27.0513 29.9206C28.0241 29.5171 28.8555 28.8343 29.4404 27.9585C30.0254 27.0826 30.3375 26.053 30.3375 24.9998C30.3389 24.299 30.2017 23.6048 29.9338 22.9571C29.6659 22.3095 29.2727 21.7212 28.7766 21.2261C28.2805 20.731 27.6915 20.3389 27.0433 20.0723C26.3952 19.8057 25.7007 19.6698 24.9998 19.6725V19.6725ZM24.9998 28.4579C24.3159 28.4579 23.6473 28.2551 23.0786 27.8751C22.51 27.4952 22.0667 26.9551 21.805 26.3232C21.5433 25.6913 21.4748 24.996 21.6082 24.3252C21.7416 23.6544 22.071 23.0382 22.5546 22.5546C23.0382 22.071 23.6544 21.7416 24.3252 21.6082C24.996 21.4748 25.6913 21.5433 26.3232 21.805C26.9551 22.0667 27.4952 22.51 27.8751 23.0786C28.2551 23.6473 28.4579 24.3159 28.4579 24.9998C28.4579 25.454 28.3685 25.9036 28.1947 26.3232C28.0209 26.7428 27.7662 27.124 27.4451 27.4451C27.124 27.7662 26.7428 28.0209 26.3232 28.1947C25.9036 28.3685 25.454 28.4579 24.9998 28.4579V28.4579Z" fill="url(#paint1_linear_4110_2897)"/>
<defs>
<linearGradient id="paint0_linear_4110_2897" x1="50.0384" y1="15.7997" x2="4.54765" y2="39.6906" gradientUnits="userSpaceOnUse">
<stop offset="0.15" stop-color="#BE811A"/>
<stop offset="0.45" stop-color="#F4D48D"/>
<stop offset="0.55" stop-color="#F4D48D"/>
<stop offset="0.85" stop-color="#F3B62E"/>
</linearGradient>
<linearGradient id="paint1_linear_4110_2897" x1="33.3483" y1="20.5493" x2="16.2615" y2="29.7785" gradientUnits="userSpaceOnUse">
<stop stop-color="#BE811A"/>
<stop offset="0.0726995" stop-color="#BF8727"/>
<stop offset="0.48105" stop-color="#EDCA7E"/>
<stop offset="0.581164" stop-color="#F4D48D"/>
<stop offset="0.674109" stop-color="#F4D081"/>
<stop offset="1" stop-color="#F3B62E"/>
</linearGradient>
</defs>
</svg>
