<svg width="50" height="51" viewBox="0 0 50 51" fill="none" xmlns="http://www.w3.org/2000/svg">
<path d="M0.5 25.5C0.5 11.969 11.469 1 25 1C38.531 1 49.5 11.969 49.5 25.5C49.5 39.031 38.531 50 25 50C11.469 50 0.5 39.031 0.5 25.5Z" stroke="url(#paint0_linear_23_49436)"/>
<path d="M30.1761 17.7427H32.9362L26.9061 24.5201L34 33.7427H28.4456L24.0951 28.1493L19.1172 33.7427H16.3554L22.8052 26.4935L16 17.7427H21.6954L25.6279 22.8553L30.1761 17.7427ZM29.2073 32.1181H30.7368L20.8644 19.282H19.2232L29.2073 32.1181Z" fill="url(#paint1_linear_23_49436)"/>
<defs>
<linearGradient id="paint0_linear_23_49436" x1="50.0384" y1="16.2997" x2="4.54765" y2="40.1906" gradientUnits="userSpaceOnUse">
<stop offset="0.15" stop-color="#BE811A"/>
<stop offset="0.45" stop-color="#F4D48D"/>
<stop offset="0.55" stop-color="#F4D48D"/>
<stop offset="0.85" stop-color="#F3B62E"/>
</linearGradient>
<linearGradient id="paint1_linear_23_49436" x1="34.0138" y1="22.7986" x2="18.5265" y2="31.9489" gradientUnits="userSpaceOnUse">
<stop offset="0.15" stop-color="#BE811A"/>
<stop offset="0.45" stop-color="#F4D48D"/>
<stop offset="0.55" stop-color="#F4D48D"/>
<stop offset="0.85" stop-color="#F3B62E"/>
</linearGradient>
</defs>
</svg>
