<svg width="50" height="50" viewBox="0 0 50 50" fill="none" xmlns="http://www.w3.org/2000/svg">
<path d="M25 49.5C11.469 49.5 0.5 38.531 0.5 25C0.5 11.469 11.469 0.5 25 0.5C38.531 0.5 49.5 11.469 49.5 25C49.5 38.531 38.531 49.5 25 49.5Z" stroke="url(#paint0_linear_4110_2902)"/>
<path d="M25.0676 18.5H25.1844C26.2634 18.5035 31.7303 18.5382 33.2043 18.8875C33.6499 18.9941 34.056 19.2019 34.3819 19.4901C34.7078 19.7784 34.9422 20.1369 35.0616 20.53C35.1942 20.9695 35.2874 21.5513 35.3504 22.1517L35.3635 22.272L35.3924 22.5727L35.4029 22.693C35.4882 23.7502 35.4987 24.7403 35.5 24.9566V25.0434C35.4987 25.2678 35.4869 26.325 35.3924 27.4261L35.3819 27.5476L35.3701 27.6679C35.3044 28.3295 35.2073 28.9865 35.0616 29.47C34.9422 29.8631 34.7078 30.2216 34.3819 30.5099C34.056 30.7981 33.6499 31.0059 33.2043 31.1125C31.6817 31.4734 25.8945 31.4988 25.0925 31.5H24.9062C24.5006 31.5 22.8231 31.4931 21.0642 31.4399L20.8411 31.4329L20.7269 31.4283L20.5024 31.4202L20.278 31.4121C18.821 31.3554 17.4336 31.264 16.7944 31.1114C16.3489 31.0048 15.943 30.7972 15.6171 30.5092C15.2912 30.2212 15.0567 29.8629 14.9371 29.47C14.7914 28.9877 14.6943 28.3295 14.6286 27.6679L14.6181 27.5464L14.6076 27.4261C14.5425 26.6424 14.5066 25.857 14.5 25.0711L14.5 24.9289C14.5026 24.6802 14.5131 23.8208 14.584 22.8723L14.5932 22.7531L14.5971 22.693L14.6076 22.5727L14.6365 22.272L14.6496 22.1517C14.7126 21.5513 14.8058 20.9684 14.9384 20.53C15.0578 20.1369 15.2922 19.7784 15.6181 19.4901C15.944 19.2019 16.3501 18.9941 16.7957 18.8875C17.4349 18.7371 18.8223 18.6446 20.2793 18.5868L20.5024 18.5787L20.7282 18.5717L20.8411 18.5682L21.0655 18.5601C22.3147 18.5248 23.5644 18.5051 24.8143 18.5012L25.0676 18.5ZM22.9005 22.213V27.7859L28.3569 25.0006L22.9005 22.213Z" fill="url(#paint1_linear_4110_2902)"/>
<defs>
<linearGradient id="paint0_linear_4110_2902" x1="50.0384" y1="15.7997" x2="4.54765" y2="39.6906" gradientUnits="userSpaceOnUse">
<stop offset="0.15" stop-color="#BE811A"/>
<stop offset="0.45" stop-color="#F4D48D"/>
<stop offset="0.55" stop-color="#F4D48D"/>
<stop offset="0.85" stop-color="#F3B62E"/>
</linearGradient>
<linearGradient id="paint1_linear_4110_2902" x1="39.0886" y1="23.7633" x2="18.0294" y2="36.6713" gradientUnits="userSpaceOnUse">
<stop stop-color="#BE811A"/>
<stop offset="0.0726995" stop-color="#BF8727"/>
<stop offset="0.48105" stop-color="#EDCA7E"/>
<stop offset="0.581164" stop-color="#F4D48D"/>
<stop offset="0.674109" stop-color="#F4D081"/>
<stop offset="1" stop-color="#F3B62E"/>
</linearGradient>
</defs>
</svg>
